<?xml version="1.0" encoding="utf-8"?>
<!-- Generator: Adobe Illustrator 22.1.0, SVG Export Plug-In . SVG Version: 6.00 Build 0)  -->
<svg version="1.1" id="Ebene_1" xmlns="http://www.w3.org/2000/svg" xmlns:xlink="http://www.w3.org/1999/xlink" x="0px" y="0px"
	 viewBox="0 0 603 560" style="enable-background:new 0 0 603 560;" xml:space="preserve">
<style type="text/css">
	.st0{fill:none;stroke:#4A90E2;stroke-width:5;stroke-dasharray:5,5,5,5;}
	.st1{fill:none;stroke:#4A90E2;stroke-width:3;}
	.st2{fill:none;stroke:#5A6872;stroke-width:3;}
	.st3{fill:#5A6872;}
	.st4{enable-background:new    ;}
	.st5{font-family:'IBMPlexSans';}
	.st6{font-size:14px;}
	.st7{fill:#FFFFFF;}
	.st8{fill:#FFFFFF;stroke:#FFFFFF;stroke-width:3;}
	.st9{font-family:'IBMPlexSans-Bold';}
	.st10{font-size:10px;}
</style>
<title>4-incident_response</title>
<desc>Created with Sketch.</desc>
<g id="_x34_-incident_x5F_response">
	<g id="incident_response" transform="translate(4.000000, 7.000000)">
		<g id="_x34_" transform="translate(380.000000, 304.000000)">
			<path id="Shape" class="st0" d="M136,0c0,73.8-51.7,136-118,136"/>
			<polygon id="Shape_1_" class="st1" points="16.3,130.3 17.2,131.2 13.1,135.5 13.1,136.8 17.2,141.1 16.3,142 10.6,136.2 			"/>
		</g>
		<g id="_x33_" transform="translate(91.000000, 31.000000)">
			<path id="Shape_2_" class="st0" d="M0.6,141.6c0-71.7,58.2-129.9,130.1-129.9"/>
			<polygon id="Shape_3_" class="st1" points="134.9,17.4 134,16.5 138.1,12.4 138.1,11.1 134,7 134.9,6 140.6,11.7 			"/>
		</g>
		<g id="_x32_" transform="translate(375.000000, 33.000000)">
			<path id="Shape_4_" class="st0" d="M0.5,0.7c72.4,0,137,54,137,121.9"/>
			<polygon id="Shape_5_" class="st1" points="132,128.9 132.9,128 136.9,131.9 138.2,131.9 142.2,128 143.2,128.9 137.6,134.3 			
				"/>
		</g>
		<g id="_x31_" transform="translate(74.000000, 299.000000)">
			<path id="Shape_6_" class="st0" d="M131.7,144.4c-65.2,0-118-58-118-129.6"/>
			<polygon id="Shape_7_" class="st1" points="20,10.2 19,11 14.7,7.3 13.3,7.3 9,11 8,10.2 14,5 			"/>
		</g>
		<g id="right" transform="translate(418.000000, 181.000000)">
			<g id="hexy" transform="translate(50.000000, 0.000000)">
				<polygon id="polygon13" class="st2" points="80,37 60,0 20,0 0,37 20,74 60,74 				"/>
				<rect id="Rectangle" x="17" y="15" class="st3" width="47" height="44"/>
			</g>
			<text transform="matrix(1 0 0 1 16.815 96)" class="st4"><tspan x="0" y="0" class="st3 st5 st6">An IBM Cloud gesendeter </tspan><tspan x="0" y="16.8" class="st3 st5 st6">                Alert</tspan></text>
		</g>
		<g id="top" transform="translate(215.000000, 0.000000)">
			<text transform="matrix(1 0 0 1 26.503 126)" class="st3 st5 st6">Vorfall erkannt in </text>
			<text transform="matrix(1 0 0 1 18.677 144)" class="st3 st5 st6">Umgebung des Kunden</text>
			<g id="hexy_1_" transform="translate(34.000000, 0.000000)">
				<polygon id="polygon13-copy" class="st2" points="111.7,51.7 83.9,0.2 28.1,0.2 0.3,51.7 28.1,103.2 83.9,103.2 				"/>
				<g id="Group-3" transform="translate(25.286364, 15.213636)">
					<rect id="Rectangle_1_" x="0" y="0" class="st3" width="62" height="63"/>
					<g id="Group-2" transform="translate(9.000000, 35.000000)">
						<rect id="Rectangle-Copy-2" x="0" y="1" class="st3" width="44" height="38"/>
						<rect id="Rectangle-Copy-2_1_" x="2" y="0" class="st7" width="40" height="36"/>
						<rect id="Rectangle-Copy" x="15" y="12" class="st3" width="12" height="18"/>
					</g>
				</g>
			</g>
		</g>
		<g id="bottom" transform="translate(196.000000, 402.000000)">
			<text transform="matrix(1 0 0 1 11.131 140)" class="st3 st5 st6">24/7-Zusammenarbeit mit IBM Cloud</text>
			<circle id="Oval-2" class="st1" cx="104" cy="59" r="59"/>
			<g id="Group-5" transform="translate(18.000000, 18.000000)">
				<g id="ops">
					<polygon id="polygon13_1_" class="st8" points="88.6,41 66.4,81.9 22.1,81.9 0,41 22.1,0 66.4,0 					"/>
					<polygon id="polygon13_2_" class="st2" points="86.1,40.9 65.1,79.8 23,79.8 2,40.9 23,2 65.1,2 					"/>
					<rect id="Rectangle_2_" x="23" y="12" class="st3" width="42" height="28"/>
					<text transform="matrix(1 0 0 1 20.12 53)" class="st3 st9 st10">IBM Cloud-</text>
					<text transform="matrix(1 0 0 1 72.9091 53)" class="st3 st9 st10"> </text>
					<text transform="matrix(1 0 0 1 26.565 66)" class="st3 st5 st10">Support</text>
				</g>
			</g>
			<g id="Group-5_1_" transform="translate(101.000000, 18.000000)">
				<g id="ops_1_">
					<polygon id="polygon13_3_" class="st8" points="88.6,41 66.4,81.9 22.1,81.9 0,41 22.1,0 66.4,0 					"/>
					<polygon id="polygon13_4_" class="st2" points="86.1,40.9 65.1,79.8 23,79.8 2,40.9 23,2 65.1,2 					"/>
					<rect id="Rectangle_3_" x="23" y="12" class="st3" width="42" height="28"/>
					<text transform="matrix(1 0 0 1 20.12 53)" class="st3 st9 st10">IBM Cloud</text>
					<text transform="matrix(1 0 0 1 68.8792 53)" class="st3 st9 st10"> </text>
					<text transform="matrix(1 0 0 1 19.73 66)" class="st3 st5 st10">Operations</text>
				</g>
			</g>
		</g>
		<g id="left" transform="translate(0.000000, 181.000000)">
			<g id="hexy_2_" transform="translate(50.000000, 0.000000)">
				<polygon id="polygon13_5_" class="st2" points="80,37 60,0 20,0 0,37 20,74 60,74 				"/>
				<rect id="Rectangle_4_" x="17" y="23" class="st3" width="47" height="29"/>
			</g>
			<text transform="matrix(1 0 0 1 1.359 96)" class="st3 st5 st6">IBM Cloud sendet Benachrichtigung </text>
			<text transform="matrix(1 0 0 1 44.696 114)" class="st3 st5 st6">an Seite &apos;Status&apos;</text>
		</g>
	</g>
</g>
</svg>
