<?xml version="1.0" encoding="UTF-8"?>
<svg width="603px" height="560px" viewBox="0 0 603 560" version="1.1" xmlns="http://www.w3.org/2000/svg" xmlns:xlink="http://www.w3.org/1999/xlink">
    <!-- Generator: Sketch 49.3 (51167) - http://www.bohemiancoding.com/sketch -->
    <title>4-incident_response</title>
    <desc>Created with Sketch.</desc>
    <defs></defs>
    <g id="4-incident_response" stroke="none" stroke-width="1" fill="none" fill-rule="evenodd">
        <g id="incident_response" transform="translate(4.000000, 7.000000)">
            <g id="4" transform="translate(380.000000, 304.000000)" stroke="#4A90E2">
                <path d="M136,0 C136,73.8440196 84.3482983,136 18,136" id="Shape" stroke-width="5" stroke-dasharray="5,5,5,5"></path>
                <polygon id="Shape" stroke-width="3" points="16.2632742 130.273608 17.1882833 131.232794 13.0719927 135.485571 13.0719927 136.837677 17.1882833 141.078897 16.2632742 142.038083 10.5744681 136.155845"></polygon>
            </g>
            <g id="3" transform="translate(91.000000, 31.000000)" stroke="#4A90E2">
                <path d="M0.566568085,141.564876 C0.566568085,69.8223772 58.7958921,11.6587182 130.62285,11.6587182" id="Shape" stroke-width="5" stroke-dasharray="5,5,5,5"></path>
                <polygon id="Shape" stroke-width="3" points="134.896599 17.3998182 133.971429 16.4761818 138.088435 12.3775455 138.088435 11.0729091 133.971429 6.96272727 134.896599 6.03909091 140.586395 11.7194545"></polygon>
            </g>
            <g id="2" transform="translate(375.000000, 33.000000)" stroke="#4A90E2">
                <path d="M0.549258092,0.694457596 C72.9873809,0.694457596 137.549258,54.6687602 137.549258,122.637239" id="Shape" stroke-width="5" stroke-dasharray="5,5,5,5"></path>
                <polygon id="Shape" stroke-width="3" points="132 128.869249 132.906556 128 136.929396 131.883398 138.209905 131.883398 142.244077 128 143.150633 128.869249 137.575316 134.254077"></polygon>
            </g>
            <g id="1" transform="translate(74.000000, 299.000000)" stroke="#4A90E2">
                <path d="M131.659193,144.435475 C66.4920372,144.435475 13.6591932,86.4161597 13.6591932,14.848251" id="Shape" stroke-width="5" stroke-dasharray="5,5,5,5"></path>
                <polygon id="Shape" stroke-width="3" points="20 10.1608392 19.0243902 11 14.695122 7.26573427 13.3170732 7.26573427 8.97560976 11 8 10.1608392 14 5"></polygon>
            </g>
            <g id="right" transform="translate(418.000000, 181.000000)">
                <g id="hexy" transform="translate(50.000000, 0.000000)">
                    <polygon id="polygon13" stroke="#5A6872" stroke-width="3" fill-rule="nonzero" transform="translate(40.000000, 37.000000) rotate(90.000000) translate(-40.000000, -37.000000) " points="40 -3 3 17 3 57 40 77 77 57 77 17"></polygon>
                    <rect id="Rectangle" fill="#5A6872" x="17" y="15" width="47" height="44"></rect>
                </g>
                <text id="Alert-sent-to-IBM-Cl" font-family="IBMPlexSans, IBM Plex Sans" font-size="14" font-weight="normal" fill="#5A6872">
                    <tspan x="16.815" y="96">Alerta enviado para IBM Cloud</tspan>
                </text>
            </g>
            <g id="top" transform="translate(215.000000, 0.000000)">
                <text id="Incident-detected-in" font-family="IBMPlexSans, IBM Plex Sans" font-size="14" font-weight="normal" fill="#5A6872">
                    <tspan x="26.503" y="126">Incidente detectado no</tspan>
                    <tspan x="18.677" y="144">ambiente do cliente</tspan>
                </text>
                <g id="hexy" transform="translate(34.000000, 0.000000)">
                    <polygon id="polygon13-copy" stroke="#5A6872" stroke-width="3" fill-rule="nonzero" transform="translate(56.000000, 51.713636) rotate(90.000000) translate(-56.000000, -51.713636) " points="56 -4 4.5 23.8568182 4.5 79.5704545 56 107.427273 107.5 79.5704545 107.5 23.8568182"></polygon>
                    <g id="Group-3" transform="translate(25.286364, 15.213636)">
                        <rect id="Rectangle" fill="#5A6872" x="0" y="0" width="62" height="63"></rect>
                        <g id="Group-2" transform="translate(9.000000, 35.000000)">
                            <rect id="Rectangle-Copy-2" fill="#5A6872" x="0" y="1" width="44" height="38"></rect>
                            <rect id="Rectangle-Copy-2" fill="#FFFFFF" x="2" y="0" width="40" height="36"></rect>
                            <rect id="Rectangle-Copy" fill="#5A6872" x="15" y="12" width="12" height="18"></rect>
                        </g>
                    </g>
                </g>
            </g>
            <g id="bottom" transform="translate(196.000000, 402.000000)">
                <text id="24/7-IBM-Cloud-colla" font-family="IBMPlexSans, IBM Plex Sans" font-size="14" font-weight="normal" fill="#5A6872">
                    <tspan x="11.131" y="140">Colaboração da IBM Cloud 24/7</tspan>
                </text>
                <circle id="Oval-2" stroke="#4A90E2" stroke-width="3" cx="104" cy="59" r="59"></circle>
                <g id="Group-5" transform="translate(18.000000, 18.000000)">
                    <g id="ops">
                        <polygon id="polygon13" stroke="#FFFFFF" stroke-width="3" fill="#FFFFFF" fill-rule="nonzero" points="88.5820169 40.9691828 66.4365126 81.9383656 22.1455042 81.9383656 0 40.9691828 22.1455042 2.37242744e-13 66.4365126 2.34479103e-13"></polygon>
                        <polygon id="polygon13" stroke="#5A6872" stroke-width="3" fill-rule="nonzero" points="86.0968515 40.8947938 65.0726386 79.7895876 23.0242129 79.7895876 2 40.8947938 23.0242129 2 65.0726386 2"></polygon>
                        <rect id="Rectangle" fill="#5A6872" x="23" y="12" width="42" height="28"></rect>
                        <text id="IBM-Cloud-Support" font-family="IBMPlexSans-Bold, IBM Plex Sans" font-size="10" font-weight="bold" fill="#5A6872">
                            <tspan x="20.12" y="53">IBM Cloud</tspan>
                            <tspan x="68.88" y="53" font-family="IBMPlexSans, IBM Plex Sans" font-weight="normal"> </tspan>
                            <tspan x="26.565" y="66" font-family="IBMPlexSans, IBM Plex Sans" font-weight="normal">Suporte</tspan>
                        </text>
                    </g>
                </g>
                <g id="Group-5" transform="translate(101.000000, 18.000000)">
                    <g id="ops">
                        <polygon id="polygon13" stroke="#FFFFFF" stroke-width="3" fill="#FFFFFF" fill-rule="nonzero" points="88.5820169 40.9691828 66.4365126 81.9383656 22.1455042 81.9383656 0 40.9691828 22.1455042 2.37242744e-13 66.4365126 2.34479103e-13"></polygon>
                        <polygon id="polygon13" stroke="#5A6872" stroke-width="3" fill-rule="nonzero" points="86.0968515 40.8947938 65.0726386 79.7895876 23.0242129 79.7895876 2 40.8947938 23.0242129 2 65.0726386 2"></polygon>
                        <rect id="Rectangle" fill="#5A6872" x="23" y="12" width="42" height="28"></rect>
                        <text id="IBM-Cloud-Operations" font-family="IBMPlexSans-Bold, IBM Plex Sans" font-size="10" font-weight="bold" fill="#5A6872">
                            <tspan x="20.12" y="53">IBM Cloud</tspan>
                            <tspan x="68.88" y="53" font-family="IBMPlexSans, IBM Plex Sans" font-weight="normal"> </tspan>
                            <tspan x="19.73" y="66" font-family="IBMPlexSans, IBM Plex Sans" font-weight="normal">Operações</tspan>
                        </text>
                    </g>
                </g>
            </g>
            <g id="left" transform="translate(0.000000, 181.000000)">
                <g id="hexy" transform="translate(50.000000, 0.000000)">
                    <polygon id="polygon13" stroke="#5A6872" stroke-width="3" fill-rule="nonzero" transform="translate(40.000000, 37.000000) rotate(90.000000) translate(-40.000000, -37.000000) " points="40 -3 3 17 3 57 40 77 77 57 77 17"></polygon>
                    <rect id="Rectangle" fill="#5A6872" x="17" y="23" width="47" height="29"></rect>
                </g>
                <text id="IBM-Cloud-sends-noti" font-family="IBMPlexSans, IBM Plex Sans" font-size="14" font-weight="normal" fill="#5A6872">
                    <tspan x="1.359" y="96">A IBM Cloud envia notificação</tspan>
                    <tspan x="44.696" y="114">para a Página Status</tspan>
                </text>
            </g>
        </g>
    </g>
</svg>
